<mxfile host="app.diagrams.net" modified="2021-05-16T04:48:11.955Z" agent="5.0 (Windows NT 10.0; Win64; x64) AppleWebKit/537.36 (KHTML, like Gecko) Chrome/90.0.4430.212 Safari/537.36" etag="xPl7qrG8W_Rfa0nKXcWz" version="14.6.13" type="github">
  <diagram id="dFy93zj4jeRqH3liZ806" name="Page-1">
    <mxGraphModel dx="1196" dy="1120" grid="1" gridSize="10" guides="1" tooltips="1" connect="1" arrows="1" fold="1" page="1" pageScale="1" pageWidth="827" pageHeight="1169" math="0" shadow="0">
      <root>
        <mxCell id="0" />
        <mxCell id="1" parent="0" />
        <mxCell id="WERGgwfV3MQBjBCdJ9Pz-1" value="" style="rounded=0;whiteSpace=wrap;html=1;" vertex="1" parent="1">
          <mxGeometry x="350" y="540" width="120" height="60" as="geometry" />
        </mxCell>
        <mxCell id="WERGgwfV3MQBjBCdJ9Pz-2" value="" style="rounded=1;whiteSpace=wrap;html=1;" vertex="1" parent="1">
          <mxGeometry x="350" y="540" width="120" height="60" as="geometry" />
        </mxCell>
        <mxCell id="WERGgwfV3MQBjBCdJ9Pz-3" value="a赛风啊稍等" style="rounded=0;whiteSpace=wrap;html=1;" vertex="1" parent="1">
          <mxGeometry x="130" y="160" width="160" height="100" as="geometry" />
        </mxCell>
        <mxCell id="WERGgwfV3MQBjBCdJ9Pz-4" value="" style="rounded=1;whiteSpace=wrap;html=1;" vertex="1" parent="1">
          <mxGeometry x="350" y="540" width="120" height="60" as="geometry" />
        </mxCell>
      </root>
    </mxGraphModel>
  </diagram>
</mxfile>
